<svg width="754.8600341796874px" height="123.51999511718749px" xmlns="http://www.w3.org/2000/svg" viewBox="-127.43001708984372 13.240002441406254 754.8600341796874 123.51999511718749" style="background: none;" preserveAspectRatio="xMidYMid"><defs><filter id="editing-vr"><feFlood flood-color="#f00" flood-opacity="0.7" result="c1"></feFlood><feFlood flood-color="#00f" flood-opacity="0.7" result="c3"></feFlood><feComposite operator="in" in="c1" in2="SourceAlpha" result="text-c1"></feComposite><feComposite operator="in" in="c3" in2="SourceAlpha" result="text-c3"></feComposite><feOffset in="text-c1" dx="5" dy="-1" result="text1"></feOffset><feOffset in="text-c3" dx="-5" dy="1" result="text3"></feOffset><feBlend in="SourceGraphic" in2="text1" mode="multiply" result="text4"></feBlend><feBlend in="text4" in2="text3" mode="multiply"></feBlend></filter></defs><g filter="url(#editing-vr)"><g transform="translate(-18.87411794066429, 104.76000022888184)"><path d="M13.41 0.64L13.41 0.64L13.41 0.64Q10.37 0 8.80-0.29L8.80-0.29L8.80-0.29Q7.23-0.58 5.41-0.58L5.41-0.58L5.41-0.58Q3.58-0.58 1.79 0.06L1.79 0.06L1.79 0.06Q0.83-0.51 0.22-1.66L0.22-1.66L0.22-1.66Q-0.38-2.82-0.38-4.61L-0.38-4.61L-0.38-4.61Q-0.38-8.38 3.46-11.26L3.46-11.26L19.71-22.98L19.71-22.98Q15.17-24.26 11.04-24.26L11.04-24.26L11.04-24.26Q6.91-24.26 5.44-21.44L5.44-21.44L5.44-21.44Q3.26-24 3.26-28.03L3.26-28.03L3.26-28.03Q3.26-30.72 5.22-32.48L5.22-32.48L5.22-32.48Q7.17-34.24 11.26-34.24L11.26-34.24L11.26-34.24Q13.57-34.24 15.65-33.95L15.65-33.95L15.65-33.95Q17.73-33.66 19.58-33.41L19.58-33.41L23.04-32.90L23.04-32.90Q24.70-32.64 26.40-32.64L26.40-32.64L26.40-32.64Q28.10-32.64 29.38-33.34L29.38-33.34L29.38-33.34Q31.04-31.81 31.04-29.70L31.04-29.70L31.04-29.70Q31.04-26.37 26.94-22.91L26.94-22.91L10.75-10.82L10.75-10.82Q15.74-9.34 18.30-9.34L18.30-9.34L18.30-9.34Q23.68-9.34 25.98-11.90L25.98-11.90L25.98-11.90Q27.78-9.86 27.78-6.30L27.78-6.30L27.78-6.30Q27.78-2.75 25.47-0.74L25.47-0.74L25.47-0.74Q23.17 1.28 19.01 1.28L19.01 1.28L19.01 1.28Q16.45 1.28 13.41 0.64ZM59.26-10.82L59.26-10.82L59.26-10.82Q60.86-9.73 60.86-7.33L60.86-7.33L60.86-7.33Q60.86-4.93 59.65-3.39L59.65-3.39L59.65-3.39Q58.43-1.86 56.45-0.83L56.45-0.83L56.45-0.83Q52.35 1.28 47.94 1.28L47.94 1.28L47.94 1.28Q43.52 1.28 40.93 0.32L40.93 0.32L40.93 0.32Q38.34-0.64 36.61-2.43L36.61-2.43L36.61-2.43Q33.22-5.82 33.22-12.03L33.22-12.03L33.22-12.03Q33.22-21.70 38.46-27.58L38.46-27.58L38.46-27.58Q44.10-33.92 53.89-33.92L53.89-33.92L53.89-33.92Q59.97-33.92 62.98-31.36L62.98-31.36L62.98-31.36Q65.22-29.44 65.22-26.30L65.22-26.30L65.22-26.30Q65.22-15.04 45.76-15.04L45.76-15.04L45.76-15.04Q45.50-13.38 45.50-11.97L45.50-11.97L45.50-11.97Q45.50-9.02 46.82-7.90L46.82-7.90L46.82-7.90Q48.13-6.78 50.56-6.78L50.56-6.78L50.56-6.78Q52.99-6.78 55.58-7.90L55.58-7.90L55.58-7.90Q58.18-9.02 59.26-10.82ZM46.21-17.79L46.21-17.79L46.21-17.79Q50.75-17.79 53.38-20.61L53.38-20.61L53.38-20.61Q56-23.30 56-27.58L56-27.58L56-27.58Q56-29.06 55.46-29.86L55.46-29.86L55.46-29.86Q54.91-30.66 53.82-30.66L53.82-30.66L53.82-30.66Q52.74-30.66 51.81-30.24L51.81-30.24L51.81-30.24Q50.88-29.82 49.92-28.42L49.92-28.42L49.92-28.42Q47.55-25.22 46.21-17.79ZM87.42-17.98L87.42-17.98L87.42-17.98Q89.73-22.08 89.73-26.24L89.73-26.24L89.73-26.24Q89.73-28.99 87.74-28.99L87.74-28.99L87.74-28.99Q86.21-28.99 84.61-26.37L84.61-26.37L84.61-26.37Q82.94-23.74 82.43-20.35L82.43-20.35L79.10 0L65.86 1.28L72.38-32.64L82.94-33.92L81.79-27.46L81.79-27.46Q84.93-33.92 91.97-33.92L91.97-33.92L91.97-33.92Q95.68-33.92 97.70-32L97.70-32L97.70-32Q99.71-30.08 99.71-26.14L99.71-26.14L99.71-26.14Q99.71-22.21 97.12-19.71L97.12-19.71L97.12-19.71Q94.53-17.22 90.11-17.22L90.11-17.22L90.11-17.22Q88.19-17.22 87.42-17.98ZM114.69 1.28L114.69 1.28L114.69 1.28Q100.61 1.28 100.61-11.97L100.61-11.97L100.61-11.97Q100.61-21.38 105.79-27.46L105.79-27.46L105.79-27.46Q111.30-33.92 120.83-33.92L120.83-33.92L120.83-33.92Q127.74-33.92 131.26-30.72L131.26-30.72L131.26-30.72Q134.78-27.52 134.78-20.80L134.78-20.80L134.78-20.80Q134.78-10.56 129.28-4.61L129.28-4.61L129.28-4.61Q123.90 1.28 114.69 1.28ZM116.35-26.56L116.35-26.56L116.35-26.56Q115.58-24.83 114.98-22.24L114.98-22.24L114.98-22.24Q114.37-19.65 113.60-15.55L113.60-15.55L113.60-15.55Q112.83-11.46 112.83-6.40L112.83-6.40L112.83-6.40Q112.83-4.74 113.38-3.65L113.38-3.65L113.38-3.65Q113.92-2.56 115.39-2.56L115.39-2.56L115.39-2.56Q116.86-2.56 117.79-3.26L117.79-3.26L117.79-3.26Q118.72-3.97 119.42-5.63L119.42-5.63L119.42-5.63Q120.70-8.58 121.73-14.05L121.73-14.05L121.73-14.05Q122.75-19.52 122.85-21.89L122.85-21.89L122.85-21.89Q122.94-24.26 122.94-26.02L122.94-26.02L122.94-26.02Q122.94-27.78 122.43-28.93L122.43-28.93L122.43-28.93Q121.92-30.08 120.48-30.08L120.48-30.08L120.48-30.08Q119.04-30.08 118.08-29.18L118.08-29.18L118.08-29.18Q117.12-28.29 116.35-26.56ZM168.38-4.38L168.38-4.38L168.38-4.38Q165.70-1.66 162.02-0.19L162.02-0.19L162.02-0.19Q158.34 1.28 154.69 1.28L154.69 1.28L154.69 1.28Q151.04 1.28 149.76 0.64L149.76 0.64L147.78 11.52L134.78 12.80L143.62-32.64L154.05-33.73L153.22-29.31L153.22-29.31Q155.90-33.86 161.47-33.86L161.47-33.86L161.47-33.86Q167.74-33.86 171.07-29.82L171.07-29.82L171.07-29.82Q174.02-26.18 174.02-20.61L174.02-20.61L174.02-20.61Q174.02-15.04 172.54-11.07L172.54-11.07L172.54-11.07Q171.07-7.10 168.38-4.38ZM153.92-22.34L150.53-3.58L150.53-3.58Q151.87-2.43 153.54-2.43L153.54-2.43L153.54-2.43Q155.20-2.43 156.16-3.07L156.16-3.07L156.16-3.07Q157.12-3.71 157.82-4.99L157.82-4.99L157.82-4.99Q159.74-8.45 161.28-18.94L161.28-18.94L161.28-18.94Q161.73-22.02 161.73-25.02L161.73-25.02L161.73-25.02Q161.73-28.03 161.06-28.99L161.06-28.99L161.06-28.99Q160.38-29.95 159.10-29.95L159.10-29.95L159.10-29.95Q155.20-29.95 153.92-22.34L153.92-22.34ZM191.81 1.28L191.81 1.28L191.81 1.28Q177.73 1.28 177.73-11.97L177.73-11.97L177.73-11.97Q177.73-21.38 182.91-27.46L182.91-27.46L182.91-27.46Q188.42-33.92 197.95-33.92L197.95-33.92L197.95-33.92Q204.86-33.92 208.38-30.72L208.38-30.72L208.38-30.72Q211.90-27.52 211.90-20.80L211.90-20.80L211.90-20.80Q211.90-10.56 206.40-4.61L206.40-4.61L206.40-4.61Q201.02 1.28 191.81 1.28ZM193.47-26.56L193.47-26.56L193.47-26.56Q192.70-24.83 192.10-22.24L192.10-22.24L192.10-22.24Q191.49-19.65 190.72-15.55L190.72-15.55L190.72-15.55Q189.95-11.46 189.95-6.40L189.95-6.40L189.95-6.40Q189.95-4.74 190.50-3.65L190.50-3.65L190.50-3.65Q191.04-2.56 192.51-2.56L192.51-2.56L192.51-2.56Q193.98-2.56 194.91-3.26L194.91-3.26L194.91-3.26Q195.84-3.97 196.54-5.63L196.54-5.63L196.54-5.63Q197.82-8.58 198.85-14.05L198.85-14.05L198.85-14.05Q199.87-19.52 199.97-21.89L199.97-21.89L199.97-21.89Q200.06-24.26 200.06-26.02L200.06-26.02L200.06-26.02Q200.06-27.78 199.55-28.93L199.55-28.93L199.55-28.93Q199.04-30.08 197.60-30.08L197.60-30.08L197.60-30.08Q196.16-30.08 195.20-29.18L195.20-29.18L195.20-29.18Q194.24-28.29 193.47-26.56ZM231.04-3.52L231.04-3.52L231.04-3.52Q229.06 1.28 222.72 1.28L222.72 1.28L222.72 1.28Q219.46 1.28 217.41-0.96L217.41-0.96L217.41-0.96Q215.68-2.94 215.68-4.93L215.68-4.93L215.68-4.93Q215.68-10.11 218.05-20.22L218.05-20.22L220.42-32.64L233.41-33.92L229.50-13.70L229.50-13.70Q228.42-8.96 228.42-7.30L228.42-7.30L228.42-7.30Q228.42-3.65 231.04-3.52ZM221.57-41.54L221.57-41.54L221.57-41.54Q221.57-44.03 223.65-45.38L223.65-45.38L223.65-45.38Q225.73-46.72 228.74-46.72L228.74-46.72L228.74-46.72Q231.74-46.72 233.57-45.38L233.57-45.38L233.57-45.38Q235.39-44.03 235.39-41.54L235.39-41.54L235.39-41.54Q235.39-39.04 233.38-37.76L233.38-37.76L233.38-37.76Q231.36-36.48 228.35-36.48L228.35-36.48L228.35-36.48Q225.34-36.48 223.46-37.76L223.46-37.76L223.46-37.76Q221.57-39.04 221.57-41.54ZM263.55 1.28L263.55 1.28L263.55 1.28Q255.81 1.28 255.81-4.74L255.81-4.74L255.81-4.74Q255.87-6.40 256.38-9.22L256.38-9.22L257.54-15.10L257.54-15.10Q259.26-23.42 259.26-25.28L259.26-25.28L259.26-25.28Q259.26-28.99 257.09-28.99L257.09-28.99L257.09-28.99Q253.44-28.99 251.52-19.46L251.52-19.46L247.74 0L234.88 1.28L241.54-32.70L252.03-33.92L251.01-27.65L251.01-27.65Q254.02-33.92 263.23-33.92L263.23-33.92L263.23-33.92Q267.71-33.92 269.60-32.03L269.60-32.03L269.60-32.03Q271.49-30.14 271.49-25.92L271.49-25.92L271.49-25.92Q271.49-21.95 269.44-12.67L269.44-12.67L269.44-12.67Q268.48-8.51 268.48-6.94L268.48-6.94L268.48-6.94Q268.48-5.38 269.34-4.48L269.34-4.48L269.34-4.48Q270.21-3.58 271.49-3.46L271.49-3.46L271.49-3.46Q270.85-1.28 268.64 0L268.64 0L268.64 0Q266.43 1.28 263.55 1.28ZM277.63-6.40L277.63-6.40L277.63-6.40Q277.63-8.13 278.53-12.48L278.53-12.48L281.92-29.76L278.14-29.76L278.40-31.68L278.40-31.68Q286.08-33.98 293.50-39.62L293.50-39.62L296.58-39.62L295.04-32.64L300.03-32.64L299.46-29.76L294.53-29.76L291.26-12.48L291.26-12.48Q290.43-8.51 290.43-7.17L290.43-7.17L290.43-7.17Q290.43-4.10 293.12-3.46L293.12-3.46L293.12-3.46Q292.48-1.28 290.18 0L290.18 0L290.18 0Q287.87 1.28 284.61 1.28L284.61 1.28L284.61 1.28Q281.34 1.28 279.49-0.77L279.49-0.77L279.49-0.77Q277.63-2.82 277.63-6.40ZM326.78 1.28L326.78 1.28L326.78 1.28Q319.04 1.28 319.04-4.74L319.04-4.74L319.04-4.74Q319.10-6.40 319.62-9.22L319.62-9.22L320.77-15.10L320.77-15.10Q322.50-23.42 322.50-25.28L322.50-25.28L322.50-25.28Q322.50-28.99 320.32-28.99L320.32-28.99L320.32-28.99Q316.67-28.99 314.75-19.46L314.75-19.46L310.98 0L298.11 1.28L304.77-32.70L315.26-33.92L314.24-27.65L314.24-27.65Q317.25-33.92 326.46-33.92L326.46-33.92L326.46-33.92Q330.94-33.92 332.83-32.03L332.83-32.03L332.83-32.03Q334.72-30.14 334.72-25.92L334.72-25.92L334.72-25.92Q334.72-21.95 332.67-12.67L332.67-12.67L332.67-12.67Q331.71-8.51 331.71-6.94L331.71-6.94L331.71-6.94Q331.71-5.38 332.58-4.48L332.58-4.48L332.58-4.48Q333.44-3.58 334.72-3.46L334.72-3.46L334.72-3.46Q334.08-1.28 331.87 0L331.87 0L331.87 0Q329.66 1.28 326.78 1.28ZM340.86-6.40L340.86-6.40L340.86-6.40Q340.86-8.13 341.76-12.48L341.76-12.48L345.15-29.76L341.38-29.76L341.63-31.68L341.63-31.68Q349.31-33.98 356.74-39.62L356.74-39.62L359.81-39.62L358.27-32.64L363.26-32.64L362.69-29.76L357.76-29.76L354.50-12.48L354.50-12.48Q353.66-8.51 353.66-7.17L353.66-7.17L353.66-7.17Q353.66-4.10 356.35-3.46L356.35-3.46L356.35-3.46Q355.71-1.28 353.41 0L353.41 0L353.41 0Q351.10 1.28 347.84 1.28L347.84 1.28L347.84 1.28Q344.58 1.28 342.72-0.77L342.72-0.77L342.72-0.77Q340.86-2.82 340.86-6.40ZM376.64 1.28L376.64 1.28L376.64 1.28Q362.56 1.28 362.56-11.97L362.56-11.97L362.56-11.97Q362.56-21.38 367.74-27.46L367.74-27.46L367.74-27.46Q373.25-33.92 382.78-33.92L382.78-33.92L382.78-33.92Q389.70-33.92 393.22-30.72L393.22-30.72L393.22-30.72Q396.74-27.52 396.74-20.80L396.74-20.80L396.74-20.80Q396.74-10.56 391.23-4.61L391.23-4.61L391.23-4.61Q385.86 1.28 376.64 1.28ZM378.30-26.56L378.30-26.56L378.30-26.56Q377.54-24.83 376.93-22.24L376.93-22.24L376.93-22.24Q376.32-19.65 375.55-15.55L375.55-15.55L375.55-15.55Q374.78-11.46 374.78-6.40L374.78-6.40L374.78-6.40Q374.78-4.74 375.33-3.65L375.33-3.65L375.33-3.65Q375.87-2.56 377.34-2.56L377.34-2.56L377.34-2.56Q378.82-2.56 379.74-3.26L379.74-3.26L379.74-3.26Q380.67-3.97 381.38-5.63L381.38-5.63L381.38-5.63Q382.66-8.58 383.68-14.05L383.68-14.05L383.68-14.05Q384.70-19.52 384.80-21.89L384.80-21.89L384.80-21.89Q384.90-24.26 384.90-26.02L384.90-26.02L384.90-26.02Q384.90-27.78 384.38-28.93L384.38-28.93L384.38-28.93Q383.87-30.08 382.43-30.08L382.43-30.08L382.43-30.08Q380.99-30.08 380.03-29.18L380.03-29.18L380.03-29.18Q379.07-28.29 378.30-26.56ZM432.70-7.10L432.70-7.10L432.70-7.10Q432.70-4.29 435.58-3.46L435.58-3.46L435.58-3.46Q434.88-1.09 432.13 0.19L432.13 0.19L432.13 0.19Q429.82 1.28 427.30 1.28L427.30 1.28L427.30 1.28Q424.77 1.28 423.46 0.61L423.46 0.61L423.46 0.61Q422.14-0.06 421.44-1.15L421.44-1.15L421.44-1.15Q420.29-2.82 420.29-5.95L420.29-5.95L420.29-5.95Q420.29-7.81 421.31-12.93L421.31-12.93L422.21-17.79L422.21-17.79Q423.30-23.36 423.30-25.41L423.30-25.41L423.30-25.41Q423.30-28.99 421.31-28.99L421.31-28.99L421.31-28.99Q418.82-28.99 417.22-25.34L417.22-25.34L417.22-25.34Q416.58-23.94 416.13-21.82L416.13-21.82L411.78 0L398.91 1.28L407.94-44.80L420.80-46.08L420.29-43.52L420.29-43.52Q418.50-33.66 416.96-30.34L416.96-30.34L416.96-30.34Q420.54-33.92 427.14-33.92L427.14-33.92L427.14-33.92Q434.11-33.92 435.39-29.31L435.39-29.31L435.39-29.31Q435.84-27.84 435.84-26.56L435.84-26.56L435.84-26.56Q435.84-25.28 435.74-24.29L435.74-24.29L435.74-24.29Q435.65-23.30 435.33-21.50L435.33-21.50L434.50-16.90L433.02-9.66L433.02-9.66Q432.70-8.19 432.70-7.10ZM456.13-3.52L456.13-3.52L456.13-3.52Q454.14 1.28 447.81 1.28L447.81 1.28L447.81 1.28Q444.54 1.28 442.50-0.96L442.50-0.96L442.50-0.96Q440.77-2.94 440.77-4.93L440.77-4.93L440.77-4.93Q440.77-10.11 443.14-20.22L443.14-20.22L445.50-32.64L458.50-33.92L454.59-13.70L454.59-13.70Q453.50-8.96 453.50-7.30L453.50-7.30L453.50-7.30Q453.50-3.65 456.13-3.52ZM446.66-41.54L446.66-41.54L446.66-41.54Q446.66-44.03 448.74-45.38L448.74-45.38L448.74-45.38Q450.82-46.72 453.82-46.72L453.82-46.72L453.82-46.72Q456.83-46.72 458.66-45.38L458.66-45.38L458.66-45.38Q460.48-44.03 460.48-41.54L460.48-41.54L460.48-41.54Q460.48-39.04 458.46-37.76L458.46-37.76L458.46-37.76Q456.45-36.48 453.44-36.48L453.44-36.48L453.44-36.48Q450.43-36.48 448.54-37.76L448.54-37.76L448.54-37.76Q446.66-39.04 446.66-41.54ZM488.64 1.28L488.64 1.28L488.64 1.28Q480.90 1.28 480.90-4.74L480.90-4.74L480.90-4.74Q480.96-6.40 481.47-9.22L481.47-9.22L482.62-15.10L482.62-15.10Q484.35-23.42 484.35-25.28L484.35-25.28L484.35-25.28Q484.35-28.99 482.18-28.99L482.18-28.99L482.18-28.99Q478.53-28.99 476.61-19.46L476.61-19.46L472.83 0L459.97 1.28L466.62-32.70L477.12-33.92L476.10-27.65L476.10-27.65Q479.10-33.92 488.32-33.92L488.32-33.92L488.32-33.92Q492.80-33.92 494.69-32.03L494.69-32.03L494.69-32.03Q496.58-30.14 496.58-25.92L496.58-25.92L496.58-25.92Q496.58-21.95 494.53-12.67L494.53-12.67L494.53-12.67Q493.57-8.51 493.57-6.94L493.57-6.94L493.57-6.94Q493.57-5.38 494.43-4.48L494.43-4.48L494.43-4.48Q495.30-3.58 496.58-3.46L496.58-3.46L496.58-3.46Q495.94-1.28 493.73 0L493.73 0L493.73 0Q491.52 1.28 488.64 1.28ZM506.24-26.75L506.24-26.75L506.24-26.75Q508.42-29.82 511.71-31.87L511.71-31.87L511.71-31.87Q515.01-33.92 519.04-33.92L519.04-33.92L519.04-33.92Q523.07-33.92 524.99-32.64L524.99-32.64L537.54-33.92L533.18-9.34L533.18-9.34Q530.94 3.20 526.21 8.13L526.21 8.13L526.21 8.13Q521.66 12.80 512.83 12.80L512.83 12.80L512.83 12.80Q506.11 12.80 502.27 10.69L502.27 10.69L502.27 10.69Q498.43 8.58 498.43 5.06L498.43 5.06L498.43 5.06Q498.43 2.43 500.42 0.93L500.42 0.93L500.42 0.93Q502.40-0.58 505.47-0.58L505.47-0.58L505.47-0.58Q508.16-0.58 510.21 0.64L510.21 0.64L510.21 0.64Q511.42 1.28 512.00 2.18L512.00 2.18L512.00 2.18Q510.53 3.46 510.53 5.57L510.53 5.57L510.53 5.57Q510.53 8.32 513.09 8.32L513.09 8.32L513.09 8.32Q517.38 8.32 519.81-1.79L519.81-1.79L519.81-1.79Q520.51-4.54 521.09-7.30L521.09-7.30L521.09-7.30Q518.21-3.78 511.68-3.78L511.68-3.78L511.68-3.78Q507.14-3.78 504.51-5.95L504.51-5.95L504.51-5.95Q501.89-8.13 501.89-13.25L501.89-13.25L501.89-13.25Q501.89-16.45 502.98-20.06L502.98-20.06L502.98-20.06Q504.06-23.68 506.24-26.75ZM514.56-13.06L514.56-13.06L514.56-13.06Q514.56-8.70 516.80-8.70L516.80-8.70L516.80-8.70Q518.34-8.70 519.81-10.37L519.81-10.37L519.81-10.37Q520.96-11.71 521.41-13.70L521.41-13.70L524.67-30.14L524.67-30.14Q524.35-30.21 524.03-30.34L524.03-30.34L524.03-30.34Q523.39-30.59 522.56-30.59L522.56-30.59L522.56-30.59Q518.66-30.59 516.35-24.19L516.35-24.19L516.35-24.19Q514.56-19.20 514.56-13.06Z" fill="#444"></path></g></g><style>text {
  font-size: 64px;
  font-family: Arial Black;
  dominant-baseline: central;
  text-anchor: middle;
}</style></svg>