<svg width="755.2000244140625px" height="123.51999511718749px" xmlns="http://www.w3.org/2000/svg" viewBox="-127.60001220703123 13.240002441406254 755.2000244140625 123.51999511718749" style="background: none;" preserveAspectRatio="xMidYMid"><defs><filter id="editing-vr"><feFlood flood-color="#f00" flood-opacity="0.7" result="c1"></feFlood><feFlood flood-color="#00f" flood-opacity="0.7" result="c3"></feFlood><feComposite operator="in" in="c1" in2="SourceAlpha" result="text-c1"></feComposite><feComposite operator="in" in="c3" in2="SourceAlpha" result="text-c3"></feComposite><feOffset in="text-c1" dx="5" dy="-1" result="text1"></feOffset><feOffset in="text-c3" dx="-5" dy="1" result="text3"></feOffset><feBlend in="SourceGraphic" in2="text1" mode="multiply" result="text4"></feBlend><feBlend in="text4" in2="text3" mode="multiply"></feBlend></filter></defs><g filter="url(#editing-vr)"><g transform="translate(-18.99911794066429, 104.76000022888184)"><path d="M13.41 0.64L13.41 0.64L13.41 0.64Q10.37 0 8.80-0.29L8.80-0.29L8.80-0.29Q7.23-0.58 5.41-0.58L5.41-0.58L5.41-0.58Q3.58-0.58 1.79 0.06L1.79 0.06L1.79 0.06Q0.83-0.51 0.22-1.66L0.22-1.66L0.22-1.66Q-0.38-2.82-0.38-4.61L-0.38-4.61L-0.38-4.61Q-0.38-8.38 3.46-11.26L3.46-11.26L19.71-22.98L19.71-22.98Q15.17-24.26 11.04-24.26L11.04-24.26L11.04-24.26Q6.91-24.26 5.44-21.44L5.44-21.44L5.44-21.44Q3.26-24 3.26-28.03L3.26-28.03L3.26-28.03Q3.26-30.72 5.22-32.48L5.22-32.48L5.22-32.48Q7.17-34.24 11.26-34.24L11.26-34.24L11.26-34.24Q13.57-34.24 15.65-33.95L15.65-33.95L15.65-33.95Q17.73-33.66 19.58-33.41L19.58-33.41L23.04-32.90L23.04-32.90Q24.70-32.64 26.40-32.64L26.40-32.64L26.40-32.64Q28.10-32.64 29.38-33.34L29.38-33.34L29.38-33.34Q31.04-31.81 31.04-29.70L31.04-29.70L31.04-29.70Q31.04-26.37 26.94-22.91L26.94-22.91L10.75-10.82L10.75-10.82Q15.74-9.34 18.30-9.34L18.30-9.34L18.30-9.34Q23.68-9.34 25.98-11.90L25.98-11.90L25.98-11.90Q27.78-9.86 27.78-6.30L27.78-6.30L27.78-6.30Q27.78-2.75 25.47-0.74L25.47-0.74L25.47-0.74Q23.17 1.28 19.01 1.28L19.01 1.28L19.01 1.28Q16.45 1.28 13.41 0.64ZM59.26-10.82L59.26-10.82L59.26-10.82Q60.86-9.73 60.86-7.33L60.86-7.33L60.86-7.33Q60.86-4.93 59.65-3.39L59.65-3.39L59.65-3.39Q58.43-1.86 56.45-0.83L56.45-0.83L56.45-0.83Q52.35 1.28 47.94 1.28L47.94 1.28L47.94 1.28Q43.52 1.28 40.93 0.32L40.93 0.32L40.93 0.32Q38.34-0.64 36.61-2.43L36.61-2.43L36.61-2.43Q33.22-5.82 33.22-12.03L33.22-12.03L33.22-12.03Q33.22-21.70 38.46-27.58L38.46-27.58L38.46-27.58Q44.10-33.92 53.89-33.92L53.89-33.92L53.89-33.92Q59.97-33.92 62.98-31.36L62.98-31.36L62.98-31.36Q65.22-29.44 65.22-26.30L65.22-26.30L65.22-26.30Q65.22-15.04 45.76-15.04L45.76-15.04L45.76-15.04Q45.50-13.38 45.50-11.97L45.50-11.97L45.50-11.97Q45.50-9.02 46.82-7.90L46.82-7.90L46.82-7.90Q48.13-6.78 50.56-6.78L50.56-6.78L50.56-6.78Q52.99-6.78 55.58-7.90L55.58-7.90L55.58-7.90Q58.18-9.02 59.26-10.82ZM46.21-17.79L46.21-17.79L46.21-17.79Q50.75-17.79 53.38-20.61L53.38-20.61L53.38-20.61Q56-23.30 56-27.58L56-27.58L56-27.58Q56-29.06 55.46-29.86L55.46-29.86L55.46-29.86Q54.91-30.66 53.82-30.66L53.82-30.66L53.82-30.66Q52.74-30.66 51.81-30.24L51.81-30.24L51.81-30.24Q50.88-29.82 49.92-28.42L49.92-28.42L49.92-28.42Q47.55-25.22 46.21-17.79ZM87.42-17.98L87.42-17.98L87.42-17.98Q89.73-22.08 89.73-26.24L89.73-26.24L89.73-26.24Q89.73-28.99 87.74-28.99L87.74-28.99L87.74-28.99Q86.21-28.99 84.61-26.37L84.61-26.37L84.61-26.37Q82.94-23.74 82.43-20.35L82.43-20.35L79.10 0L65.86 1.28L72.38-32.64L82.94-33.92L81.79-27.46L81.79-27.46Q84.93-33.92 91.97-33.92L91.97-33.92L91.97-33.92Q95.68-33.92 97.70-32L97.70-32L97.70-32Q99.71-30.08 99.71-26.14L99.71-26.14L99.71-26.14Q99.71-22.21 97.12-19.71L97.12-19.71L97.12-19.71Q94.53-17.22 90.11-17.22L90.11-17.22L90.11-17.22Q88.19-17.22 87.42-17.98ZM114.69 1.28L114.69 1.28L114.69 1.28Q100.61 1.28 100.61-11.97L100.61-11.97L100.61-11.97Q100.61-21.38 105.79-27.46L105.79-27.46L105.79-27.46Q111.30-33.92 120.83-33.92L120.83-33.92L120.83-33.92Q127.74-33.92 131.26-30.72L131.26-30.72L131.26-30.72Q134.78-27.52 134.78-20.80L134.78-20.80L134.78-20.80Q134.78-10.56 129.28-4.61L129.28-4.61L129.28-4.61Q123.90 1.28 114.69 1.28ZM116.35-26.56L116.35-26.56L116.35-26.56Q115.58-24.83 114.98-22.24L114.98-22.24L114.98-22.24Q114.37-19.65 113.60-15.55L113.60-15.55L113.60-15.55Q112.83-11.46 112.83-6.40L112.83-6.40L112.83-6.40Q112.83-4.74 113.38-3.65L113.38-3.65L113.38-3.65Q113.92-2.56 115.39-2.56L115.39-2.56L115.39-2.56Q116.86-2.56 117.79-3.26L117.79-3.26L117.79-3.26Q118.72-3.97 119.42-5.63L119.42-5.63L119.42-5.63Q120.70-8.58 121.73-14.05L121.73-14.05L121.73-14.05Q122.75-19.52 122.85-21.89L122.85-21.89L122.85-21.89Q122.94-24.26 122.94-26.02L122.94-26.02L122.94-26.02Q122.94-27.78 122.43-28.93L122.43-28.93L122.43-28.93Q121.92-30.08 120.48-30.08L120.48-30.08L120.48-30.08Q119.04-30.08 118.08-29.18L118.08-29.18L118.08-29.18Q117.12-28.29 116.35-26.56ZM168.38-4.38L168.38-4.38L168.38-4.38Q165.70-1.66 162.02-0.19L162.02-0.19L162.02-0.19Q158.34 1.28 154.69 1.28L154.69 1.28L154.69 1.28Q151.04 1.28 149.76 0.64L149.76 0.64L147.78 11.52L134.78 12.80L143.62-32.64L154.05-33.73L153.22-29.31L153.22-29.31Q155.90-33.86 161.47-33.86L161.47-33.86L161.47-33.86Q167.74-33.86 171.07-29.82L171.07-29.82L171.07-29.82Q174.02-26.18 174.02-20.61L174.02-20.61L174.02-20.61Q174.02-15.04 172.54-11.07L172.54-11.07L172.54-11.07Q171.07-7.10 168.38-4.38ZM153.92-22.34L150.53-3.58L150.53-3.58Q151.87-2.43 153.54-2.43L153.54-2.43L153.54-2.43Q155.20-2.43 156.16-3.07L156.16-3.07L156.16-3.07Q157.12-3.71 157.82-4.99L157.82-4.99L157.82-4.99Q159.74-8.45 161.28-18.94L161.28-18.94L161.28-18.94Q161.73-22.02 161.73-25.02L161.73-25.02L161.73-25.02Q161.73-28.03 161.06-28.99L161.06-28.99L161.06-28.99Q160.38-29.95 159.10-29.95L159.10-29.95L159.10-29.95Q155.20-29.95 153.92-22.34L153.92-22.34ZM191.81 1.28L191.81 1.28L191.81 1.28Q177.73 1.28 177.73-11.97L177.73-11.97L177.73-11.97Q177.73-21.38 182.91-27.46L182.91-27.46L182.91-27.46Q188.42-33.92 197.95-33.92L197.95-33.92L197.95-33.92Q204.86-33.92 208.38-30.72L208.38-30.72L208.38-30.72Q211.90-27.52 211.90-20.80L211.90-20.80L211.90-20.80Q211.90-10.56 206.40-4.61L206.40-4.61L206.40-4.61Q201.02 1.28 191.81 1.28ZM193.47-26.56L193.47-26.56L193.47-26.56Q192.70-24.83 192.10-22.24L192.10-22.24L192.10-22.24Q191.49-19.65 190.72-15.55L190.72-15.55L190.72-15.55Q189.95-11.46 189.95-6.40L189.95-6.40L189.95-6.40Q189.95-4.74 190.50-3.65L190.50-3.65L190.50-3.65Q191.04-2.56 192.51-2.56L192.51-2.56L192.51-2.56Q193.98-2.56 194.91-3.26L194.91-3.26L194.91-3.26Q195.84-3.97 196.54-5.63L196.54-5.63L196.54-5.63Q197.82-8.58 198.85-14.05L198.85-14.05L198.85-14.05Q199.87-19.52 199.97-21.89L199.97-21.89L199.97-21.89Q200.06-24.26 200.06-26.02L200.06-26.02L200.06-26.02Q200.06-27.78 199.55-28.93L199.55-28.93L199.55-28.93Q199.04-30.08 197.60-30.08L197.60-30.08L197.60-30.08Q196.16-30.08 195.20-29.18L195.20-29.18L195.20-29.18Q194.24-28.29 193.47-26.56ZM231.04-3.52L231.04-3.52L231.04-3.52Q229.06 1.28 222.72 1.28L222.72 1.28L222.72 1.28Q219.46 1.28 217.41-0.96L217.41-0.96L217.41-0.96Q215.68-2.94 215.68-4.93L215.68-4.93L215.68-4.93Q215.68-10.11 218.05-20.22L218.05-20.22L220.42-32.64L233.41-33.92L229.50-13.70L229.50-13.70Q228.42-8.96 228.42-7.30L228.42-7.30L228.42-7.30Q228.42-3.65 231.04-3.52ZM221.57-41.54L221.57-41.54L221.57-41.54Q221.57-44.03 223.65-45.38L223.65-45.38L223.65-45.38Q225.73-46.72 228.74-46.72L228.74-46.72L228.74-46.72Q231.74-46.72 233.57-45.38L233.57-45.38L233.57-45.38Q235.39-44.03 235.39-41.54L235.39-41.54L235.39-41.54Q235.39-39.04 233.38-37.76L233.38-37.76L233.38-37.76Q231.36-36.48 228.35-36.48L228.35-36.48L228.35-36.48Q225.34-36.48 223.46-37.76L223.46-37.76L223.46-37.76Q221.57-39.04 221.57-41.54ZM263.55 1.28L263.55 1.28L263.55 1.28Q255.81 1.28 255.81-4.74L255.81-4.74L255.81-4.74Q255.87-6.40 256.38-9.22L256.38-9.22L257.54-15.10L257.54-15.10Q259.26-23.42 259.26-25.28L259.26-25.28L259.26-25.28Q259.26-28.99 257.09-28.99L257.09-28.99L257.09-28.99Q253.44-28.99 251.52-19.46L251.52-19.46L247.74 0L234.88 1.28L241.54-32.70L252.03-33.92L251.01-27.65L251.01-27.65Q254.02-33.92 263.23-33.92L263.23-33.92L263.23-33.92Q267.71-33.92 269.60-32.03L269.60-32.03L269.60-32.03Q271.49-30.14 271.49-25.92L271.49-25.92L271.49-25.92Q271.49-21.95 269.44-12.67L269.44-12.67L269.44-12.67Q268.48-8.51 268.48-6.94L268.48-6.94L268.48-6.94Q268.48-5.38 269.34-4.48L269.34-4.48L269.34-4.48Q270.21-3.58 271.49-3.46L271.49-3.46L271.49-3.46Q270.85-1.28 268.64 0L268.64 0L268.64 0Q266.43 1.28 263.55 1.28ZM277.63-6.40L277.63-6.40L277.63-6.40Q277.63-8.13 278.53-12.48L278.53-12.48L281.92-29.76L278.14-29.76L278.40-31.68L278.40-31.68Q286.08-33.98 293.50-39.62L293.50-39.62L296.58-39.62L295.04-32.64L300.03-32.64L299.46-29.76L294.53-29.76L291.26-12.48L291.26-12.48Q290.43-8.51 290.43-7.17L290.43-7.17L290.43-7.17Q290.43-4.10 293.12-3.46L293.12-3.46L293.12-3.46Q292.48-1.28 290.18 0L290.18 0L290.18 0Q287.87 1.28 284.61 1.28L284.61 1.28L284.61 1.28Q281.34 1.28 279.49-0.77L279.49-0.77L279.49-0.77Q277.63-2.82 277.63-6.40ZM326.78 1.28L326.78 1.28L326.78 1.28Q319.04 1.28 319.04-4.74L319.04-4.74L319.04-4.74Q319.10-6.40 319.62-9.22L319.62-9.22L320.77-15.10L320.77-15.10Q322.50-23.42 322.50-25.28L322.50-25.28L322.50-25.28Q322.50-28.99 320.32-28.99L320.32-28.99L320.32-28.99Q316.67-28.99 314.75-19.46L314.75-19.46L310.98 0L298.11 1.28L304.77-32.70L315.26-33.92L314.24-27.65L314.24-27.65Q317.25-33.92 326.46-33.92L326.46-33.92L326.46-33.92Q330.94-33.92 332.83-32.03L332.83-32.03L332.83-32.03Q334.72-30.14 334.72-25.92L334.72-25.92L334.72-25.92Q334.72-21.95 332.67-12.67L332.67-12.67L332.67-12.67Q331.71-8.51 331.71-6.94L331.71-6.94L331.71-6.94Q331.71-5.38 332.58-4.48L332.58-4.48L332.58-4.48Q333.44-3.58 334.72-3.46L334.72-3.46L334.72-3.46Q334.08-1.28 331.87 0L331.87 0L331.87 0Q329.66 1.28 326.78 1.28ZM353.79 1.28L353.79 1.28L353.79 1.28Q339.71 1.28 339.71-11.97L339.71-11.97L339.71-11.97Q339.71-21.38 344.90-27.46L344.90-27.46L344.90-27.46Q350.40-33.92 359.94-33.92L359.94-33.92L359.94-33.92Q366.85-33.92 370.37-30.72L370.37-30.72L370.37-30.72Q373.89-27.52 373.89-20.80L373.89-20.80L373.89-20.80Q373.89-10.56 368.38-4.61L368.38-4.61L368.38-4.61Q363.01 1.28 353.79 1.28ZM355.46-26.56L355.46-26.56L355.46-26.56Q354.69-24.83 354.08-22.24L354.08-22.24L354.08-22.24Q353.47-19.65 352.70-15.55L352.70-15.55L352.70-15.55Q351.94-11.46 351.94-6.40L351.94-6.40L351.94-6.40Q351.94-4.74 352.48-3.65L352.48-3.65L352.48-3.65Q353.02-2.56 354.50-2.56L354.50-2.56L354.50-2.56Q355.97-2.56 356.90-3.26L356.90-3.26L356.90-3.26Q357.82-3.97 358.53-5.63L358.53-5.63L358.53-5.63Q359.81-8.58 360.83-14.05L360.83-14.05L360.83-14.05Q361.86-19.52 361.95-21.89L361.95-21.89L361.95-21.89Q362.05-24.26 362.05-26.02L362.05-26.02L362.05-26.02Q362.05-27.78 361.54-28.93L361.54-28.93L361.54-28.93Q361.02-30.08 359.58-30.08L359.58-30.08L359.58-30.08Q358.14-30.08 357.18-29.18L357.18-29.18L357.18-29.18Q356.22-28.29 355.46-26.56ZM378.69-6.40L378.69-6.40L378.69-6.40Q378.69-8.13 379.58-12.48L379.58-12.48L382.98-29.76L379.20-29.76L379.46-31.68L379.46-31.68Q387.14-33.98 394.56-39.62L394.56-39.62L397.63-39.62L396.10-32.64L401.09-32.64L400.51-29.76L395.58-29.76L392.32-12.48L392.32-12.48Q391.49-8.51 391.49-7.17L391.49-7.17L391.49-7.17Q391.49-4.10 394.18-3.46L394.18-3.46L394.18-3.46Q393.54-1.28 391.23 0L391.23 0L391.23 0Q388.93 1.28 385.66 1.28L385.66 1.28L385.66 1.28Q382.40 1.28 380.54-0.77L380.54-0.77L380.54-0.77Q378.69-2.82 378.69-6.40ZM432.96-7.10L432.96-7.10L432.96-7.10Q432.96-4.29 435.84-3.46L435.84-3.46L435.84-3.46Q435.14-1.09 432.38 0.19L432.38 0.19L432.38 0.19Q430.08 1.28 427.55 1.28L427.55 1.28L427.55 1.28Q425.02 1.28 423.71 0.61L423.71 0.61L423.71 0.61Q422.40-0.06 421.70-1.15L421.70-1.15L421.70-1.15Q420.54-2.82 420.54-5.95L420.54-5.95L420.54-5.95Q420.54-7.81 421.57-12.93L421.57-12.93L422.46-17.79L422.46-17.79Q423.55-23.36 423.55-25.41L423.55-25.41L423.55-25.41Q423.55-28.99 421.57-28.99L421.57-28.99L421.57-28.99Q419.07-28.99 417.47-25.34L417.47-25.34L417.47-25.34Q416.83-23.94 416.38-21.82L416.38-21.82L412.03 0L399.17 1.28L408.19-44.80L421.06-46.08L420.54-43.52L420.54-43.52Q418.75-33.66 417.22-30.34L417.22-30.34L417.22-30.34Q420.80-33.92 427.39-33.92L427.39-33.92L427.39-33.92Q434.37-33.92 435.65-29.31L435.65-29.31L435.65-29.31Q436.10-27.84 436.10-26.56L436.10-26.56L436.10-26.56Q436.10-25.28 436.00-24.29L436.00-24.29L436.00-24.29Q435.90-23.30 435.58-21.50L435.58-21.50L434.75-16.90L433.28-9.66L433.28-9.66Q432.96-8.19 432.96-7.10ZM456.38-3.52L456.38-3.52L456.38-3.52Q454.40 1.28 448.06 1.28L448.06 1.28L448.06 1.28Q444.80 1.28 442.75-0.96L442.75-0.96L442.75-0.96Q441.02-2.94 441.02-4.93L441.02-4.93L441.02-4.93Q441.02-10.11 443.39-20.22L443.39-20.22L445.76-32.64L458.75-33.92L454.85-13.70L454.85-13.70Q453.76-8.96 453.76-7.30L453.76-7.30L453.76-7.30Q453.76-3.65 456.38-3.52ZM446.91-41.54L446.91-41.54L446.91-41.54Q446.91-44.03 448.99-45.38L448.99-45.38L448.99-45.38Q451.07-46.72 454.08-46.72L454.08-46.72L454.08-46.72Q457.09-46.72 458.91-45.38L458.91-45.38L458.91-45.38Q460.74-44.03 460.74-41.54L460.74-41.54L460.74-41.54Q460.74-39.04 458.72-37.76L458.72-37.76L458.72-37.76Q456.70-36.48 453.70-36.48L453.70-36.48L453.70-36.48Q450.69-36.48 448.80-37.76L448.80-37.76L448.80-37.76Q446.91-39.04 446.91-41.54ZM488.90 1.28L488.90 1.28L488.90 1.28Q481.15 1.28 481.15-4.74L481.15-4.74L481.15-4.74Q481.22-6.40 481.73-9.22L481.73-9.22L482.88-15.10L482.88-15.10Q484.61-23.42 484.61-25.28L484.61-25.28L484.61-25.28Q484.61-28.99 482.43-28.99L482.43-28.99L482.43-28.99Q478.78-28.99 476.86-19.46L476.86-19.46L473.09 0L460.22 1.28L466.88-32.70L477.38-33.92L476.35-27.65L476.35-27.65Q479.36-33.92 488.58-33.92L488.58-33.92L488.58-33.92Q493.06-33.92 494.94-32.03L494.94-32.03L494.94-32.03Q496.83-30.14 496.83-25.92L496.83-25.92L496.83-25.92Q496.83-21.95 494.78-12.67L494.78-12.67L494.78-12.67Q493.82-8.51 493.82-6.94L493.82-6.94L493.82-6.94Q493.82-5.38 494.69-4.48L494.69-4.48L494.69-4.48Q495.55-3.58 496.83-3.46L496.83-3.46L496.83-3.46Q496.19-1.28 493.98 0L493.98 0L493.98 0Q491.78 1.28 488.90 1.28ZM506.50-26.75L506.50-26.75L506.50-26.75Q508.67-29.82 511.97-31.87L511.97-31.87L511.97-31.87Q515.26-33.92 519.30-33.92L519.30-33.92L519.30-33.92Q523.33-33.92 525.25-32.64L525.25-32.64L537.79-33.92L533.44-9.34L533.44-9.34Q531.20 3.20 526.46 8.13L526.46 8.13L526.46 8.13Q521.92 12.80 513.09 12.80L513.09 12.80L513.09 12.80Q506.37 12.80 502.53 10.69L502.53 10.69L502.53 10.69Q498.69 8.58 498.69 5.06L498.69 5.06L498.69 5.06Q498.69 2.43 500.67 0.93L500.67 0.93L500.67 0.93Q502.66-0.58 505.73-0.58L505.73-0.58L505.73-0.58Q508.42-0.58 510.46 0.64L510.46 0.64L510.46 0.64Q511.68 1.28 512.26 2.18L512.26 2.18L512.26 2.18Q510.78 3.46 510.78 5.57L510.78 5.57L510.78 5.57Q510.78 8.32 513.34 8.32L513.34 8.32L513.34 8.32Q517.63 8.32 520.06-1.79L520.06-1.79L520.06-1.79Q520.77-4.54 521.34-7.30L521.34-7.30L521.34-7.30Q518.46-3.78 511.94-3.78L511.94-3.78L511.94-3.78Q507.39-3.78 504.77-5.95L504.77-5.95L504.77-5.95Q502.14-8.13 502.14-13.25L502.14-13.25L502.14-13.25Q502.14-16.45 503.23-20.06L503.23-20.06L503.23-20.06Q504.32-23.68 506.50-26.75ZM514.82-13.06L514.82-13.06L514.82-13.06Q514.82-8.70 517.06-8.70L517.06-8.70L517.06-8.70Q518.59-8.70 520.06-10.37L520.06-10.37L520.06-10.37Q521.22-11.71 521.66-13.70L521.66-13.70L524.93-30.14L524.93-30.14Q524.61-30.21 524.29-30.34L524.29-30.34L524.29-30.34Q523.65-30.59 522.82-30.59L522.82-30.59L522.82-30.59Q518.91-30.59 516.61-24.19L516.61-24.19L516.61-24.19Q514.82-19.20 514.82-13.06Z" fill="#444"></path></g></g><style>text {
  font-size: 64px;
  font-family: Arial Black;
  dominant-baseline: central;
  text-anchor: middle;
}</style></svg>